<svg width="32" height="32" viewBox="0 0 32 32" fill="none" xmlns="http://www.w3.org/2000/svg">
<g clip-path="url(#clip0_503_5608)">
<path d="M19.1479 4.62151C18.216 3.99886 17.1204 3.66652 15.9997 3.6665L19.1479 4.62151ZM19.1479 4.62151C20.0797 5.24417 20.8061 6.12918 21.235 7.16463M19.1479 4.62151L21.235 7.16463M21.235 7.16463C21.6639 8.20008 21.7761 9.33946 21.5574 10.4387M21.235 7.16463L21.5574 10.4387M21.5574 10.4387C21.3388 11.5379 20.7991 12.5476 20.0066 13.3401M21.5574 10.4387L20.0066 13.3401M20.0066 13.3401C19.2141 14.1326 18.2044 14.6723 17.1051 14.891M20.0066 13.3401L17.1051 14.891M17.1051 14.891C16.0059 15.1096 14.8665 14.9974 13.8311 14.5685M17.1051 14.891L13.8311 14.5685M13.8311 14.5685C12.7957 14.1396 11.9106 13.4133 11.288 12.4814M13.8311 14.5685L11.288 12.4814M11.288 12.4814C10.6674 11.5526 10.3352 10.4611 10.333 9.34422M11.288 12.4814L10.333 9.34422M10.333 9.34422L10.3391 9.07747C10.4049 7.62221 11.0285 6.248 12.0809 5.24032C13.1356 4.2304 14.5394 3.6666 15.9996 3.6665L10.333 9.34422ZM18.6665 19.6663C20.1694 19.6663 21.6107 20.2633 22.6734 21.326C23.7361 22.3888 24.3332 23.8301 24.3332 25.333V26.6663C24.3332 27.1083 24.1576 27.5323 23.845 27.8448C23.5325 28.1574 23.1085 28.333 22.6665 28.333H9.33317C8.89114 28.333 8.46722 28.1574 8.15466 27.8448C7.8421 27.5323 7.6665 27.1083 7.6665 26.6663V25.333C7.6665 23.8301 8.26353 22.3888 9.32623 21.326C10.3889 20.2633 11.8303 19.6663 13.3332 19.6663H18.6665Z" stroke="url(#paint0_linear_503_5608)" stroke-width="2"/>
<g filter="url(#filter0_b_503_5608)">
<ellipse cx="24.8673" cy="5.81793" rx="7.93177" ry="8.05546" transform="rotate(61.4369 24.8673 5.81793)" fill="white" fill-opacity="0.52"/>
</g>
</g>
<defs>
<filter id="filter0_b_503_5608" x="15.5866" y="-3.39536" width="18.5612" height="18.427" filterUnits="userSpaceOnUse" color-interpolation-filters="sRGB">
<feFlood flood-opacity="0" result="BackgroundImageFix"/>
<feGaussianBlur in="BackgroundImageFix" stdDeviation="0.625905"/>
<feComposite in2="SourceAlpha" operator="in" result="effect1_backgroundBlur_503_5608"/>
<feBlend mode="normal" in="SourceGraphic" in2="effect1_backgroundBlur_503_5608" result="shape"/>
</filter>
<linearGradient id="paint0_linear_503_5608" x1="15.9998" y1="9" x2="15.9998" y2="33" gradientUnits="userSpaceOnUse">
<stop stop-color="#F65F7C"/>
<stop offset="1" stop-color="#F9F9FB"/>
</linearGradient>
<clipPath id="clip0_503_5608">
<rect width="32" height="32" fill="white"/>
</clipPath>
</defs>
</svg>
