<svg width="26" height="26" viewBox="0 0 26 26" fill="none" xmlns="http://www.w3.org/2000/svg">
<path d="M26.0001 0H0V26.0001H26.0001V0Z" fill="#000222"/>
<path d="M12.0178 6.92969V9.67506C11.787 9.72909 11.5758 9.80767 11.3892 9.90589C10.9521 10.1367 10.623 10.4658 10.3922 10.8931C10.1663 11.3252 10.0484 11.8311 10.0484 12.4155V19.0752H7.03784V12.2731C7.03784 11.1877 7.28831 10.2448 7.78926 9.43442C8.28529 8.62898 8.98269 8.00033 9.87653 7.5485C10.5101 7.22436 11.2271 7.01809 12.0178 6.92969Z" fill="white"/>
<path d="M18.9573 12.2731V19.0751H15.9467V12.4155C15.9467 11.8311 15.8289 11.3252 15.6029 10.893C15.3721 10.4658 15.0431 10.1367 14.606 9.90587C14.4193 9.80764 14.218 9.73397 13.9921 9.67504V6.93457C14.7779 7.02297 15.4851 7.22924 16.1186 7.54847C17.0125 8.00031 17.7099 8.62895 18.2059 9.43439C18.7068 10.2447 18.9573 11.1877 18.9573 12.2731Z" fill="white"/>
</svg>
