<svg width="98" height="33" viewBox="0 0 98 33" fill="none" xmlns="http://www.w3.org/2000/svg">
<g clip-path="url(#clip0_1_911)">
<path d="M38.3228 0.997559V1.56752H40.7686V8.01129H41.4367V1.56752H43.8825V0.997559H38.3228Z" fill="#C4C4C4" fill-opacity="0.31"/>
<path d="M49.3735 0.997559V4.04281H45.2088V0.997559H44.5415V8.01129H45.2088V4.61277H49.3735V8.01129H50.0408V0.997559H49.3735Z" fill="#C4C4C4" fill-opacity="0.31"/>
<path d="M51.4576 0.997559V8.01129H56.3485V7.44132H52.1249V4.67165H56.0345V4.10169H52.1249V1.56752H56.2995V0.997559H51.4576Z" fill="#C4C4C4" fill-opacity="0.31"/>
<path d="M38.3228 25.4154V32.4283H38.9908V29.0887H42.3501V28.5187H38.9908V25.9854H42.7721V25.4154H38.3228Z" fill="#C4C4C4" fill-opacity="0.31"/>
<path d="M46.5353 32.0062C48.3817 32.0062 49.1676 30.4542 49.1676 28.9217C49.1676 27.3901 48.3817 25.838 46.5353 25.838C44.679 25.838 43.8932 27.3901 43.8932 28.9217C43.8932 30.4542 44.679 32.0062 46.5353 32.0062ZM46.5353 25.2681C48.7358 25.2681 49.8357 26.9968 49.8357 28.9217C49.8357 30.8475 48.7358 32.5762 46.5353 32.5762C44.325 32.5762 43.2251 30.8475 43.2251 28.9217C43.2251 26.9968 44.325 25.2681 46.5353 25.2681Z" fill="#C4C4C4" fill-opacity="0.31"/>
<path d="M50.8092 25.4152H51.4773V29.7565C51.4773 31.3773 52.2329 32.0061 53.5298 32.0061C54.8366 32.0061 55.5921 31.3773 55.5921 29.7565V25.4152H56.2602V29.9037C56.2602 31.3478 55.4842 32.5761 53.5298 32.5761C51.595 32.5761 50.8092 31.3478 50.8092 29.9037V25.4152Z" fill="#C4C4C4" fill-opacity="0.31"/>
<path d="M57.5962 25.415H58.3428L62.429 31.3477H62.4486V25.415H63.1159V32.4279H62.3701L58.2839 26.4953H58.2643V32.4279H57.5962V25.415Z" fill="#C4C4C4" fill-opacity="0.31"/>
<path d="M65.1901 31.8587H66.6146C68.6278 31.8587 69.502 31.0238 69.502 28.9214C69.502 26.8198 68.6278 25.9849 66.6146 25.9849H65.1901V31.8587ZM64.522 25.4149H66.9482C69.0702 25.464 70.1701 26.6039 70.1701 28.9214C70.1701 31.2397 69.0702 32.3788 66.9482 32.4278H64.522V25.4149Z" fill="#C4C4C4" fill-opacity="0.31"/>
<path d="M72.243 29.6779H75.0029L73.6471 26.0831L72.243 29.6779ZM73.3036 25.415H74.0502L76.8003 32.4279H76.084L75.2294 30.2479H72.037L71.1923 32.4279H70.4751L73.3036 25.415Z" fill="#C4C4C4" fill-opacity="0.31"/>
<path d="M76.0161 25.4146V25.9845H78.462V32.4283H79.1301V25.9845H81.5759V25.4146H76.0161Z" fill="#C4C4C4" fill-opacity="0.31"/>
<path d="M82.2837 25.4154H82.9518V32.4283H82.2837V25.4154Z" fill="#C4C4C4" fill-opacity="0.31"/>
<path d="M87.3537 32.0062C89.2001 32.0062 89.986 30.4542 89.986 28.9217C89.986 27.3901 89.2001 25.838 87.3537 25.838C85.4974 25.838 84.7115 27.3901 84.7115 28.9217C84.7115 30.4542 85.4974 32.0062 87.3537 32.0062ZM87.3537 25.2681C89.5542 25.2681 90.654 26.9968 90.654 28.9217C90.654 30.8475 89.5542 32.5762 87.3537 32.5762C85.1433 32.5762 84.0435 30.8475 84.0435 28.9217C84.0435 26.9968 85.1433 25.2681 87.3537 25.2681Z" fill="#C4C4C4" fill-opacity="0.31"/>
<path d="M91.686 25.4152H92.4326L96.5189 31.3478H96.5385V25.4152H97.2058V32.4281H96.46L92.3738 26.4954H92.3541V32.4281H91.686V25.4152Z" fill="#C4C4C4" fill-opacity="0.31"/>
<path d="M38.3228 10.0997H42.189V19.4317H47.7423V22.6479H38.3228V10.0997Z" fill="#C4C4C4" fill-opacity="0.31"/>
<path d="M50.272 10.1001H54.1382V22.6483H50.272V10.1001Z" fill="#C4C4C4" fill-opacity="0.31"/>
<path d="M57.02 10.0997H60.9738L64.6291 16.8133H64.665V10.0997H68.3203V22.6479H64.5596L60.7105 15.7936H60.6753V22.6479H57.02V10.0997Z" fill="#C4C4C4" fill-opacity="0.31"/>
<path d="M82.6075 17.797C82.6075 21.2944 80.7626 22.9462 76.8956 22.9462C73.0301 22.9462 71.1665 21.2944 71.1665 17.797V10.0996H75.0336V16.9359C75.0336 18.2009 75.0156 19.8176 76.9136 19.8176C78.7412 19.8176 78.7412 18.2009 78.7412 16.9359V10.0996H82.6075V17.797Z" fill="#C4C4C4" fill-opacity="0.31"/>
<path d="M88.7575 15.9693L84.6271 10.0996H89.1615L91.0594 13.5088L92.9222 10.0996H97.2104L93.1864 16.0045L97.6676 22.6478H93.0097L90.8664 18.9042L88.652 22.6478H84.2231L88.7575 15.9693Z" fill="#C4C4C4" fill-opacity="0.31"/>
<path d="M7.62369 26.1192V13.504H1.30341V32.4281H20.2356V26.1192H7.62369Z" fill="#C4C4C4" fill-opacity="0.31"/>
<path d="M32.8484 0.878418H1.30908V10.3429H7.61547V7.21506H26.542V26.1195H23.3921V32.4283H32.8484V0.878418Z" fill="#C4C4C4" fill-opacity="0.31"/>
</g>
<defs>
<clipPath id="clip0_1_911">
<rect width="97.3106" height="32.7095" fill="white" transform="translate(0.605957 0.224121)"/>
</clipPath>
</defs>
</svg>
