<svg width="98" height="34" viewBox="0 0 98 34" fill="none" xmlns="http://www.w3.org/2000/svg">
<g clip-path="url(#clip0_728_6051)">
<path d="M38.3223 1.49756V2.06752H40.7681V8.51129H41.4362V2.06752H43.8821V1.49756H38.3223Z" fill="#797979" fill-opacity="0.31"/>
<path d="M49.373 1.49756V4.54281H45.2083V1.49756H44.541V8.51129H45.2083V5.11277H49.373V8.51129H50.0403V1.49756H49.373Z" fill="#797979" fill-opacity="0.31"/>
<path d="M51.457 1.49756V8.51129H56.3479V7.94132H52.1243V5.17165H56.0339V4.60169H52.1243V2.06752H56.2989V1.49756H51.457Z" fill="#797979" fill-opacity="0.31"/>
<path d="M38.3223 25.9155V32.9284H38.9904V29.5888H42.3496V29.0188H38.9904V26.4855H42.7716V25.9155H38.3223Z" fill="#797979" fill-opacity="0.31"/>
<path d="M46.5348 32.5062C48.3813 32.5062 49.1671 30.9542 49.1671 29.4217C49.1671 27.8901 48.3813 26.338 46.5348 26.338C44.6785 26.338 43.8927 27.8901 43.8927 29.4217C43.8927 30.9542 44.6785 32.5062 46.5348 32.5062ZM46.5348 25.7681C48.7353 25.7681 49.8352 27.4968 49.8352 29.4217C49.8352 31.3475 48.7353 33.0762 46.5348 33.0762C44.3245 33.0762 43.2246 31.3475 43.2246 29.4217C43.2246 27.4968 44.3245 25.7681 46.5348 25.7681Z" fill="#797979" fill-opacity="0.31"/>
<path d="M50.8086 25.915H51.4767V30.2564C51.4767 31.8772 52.2323 32.506 53.5292 32.506C54.8359 32.506 55.5915 31.8772 55.5915 30.2564V25.915H56.2596V30.4036C56.2596 31.8477 55.4836 33.076 53.5292 33.076C51.5944 33.076 50.8086 31.8477 50.8086 30.4036V25.915Z" fill="#797979" fill-opacity="0.31"/>
<path d="M57.5957 25.915H58.3423L62.4285 31.8477H62.4482V25.915H63.1154V32.9279H62.3697L58.2834 26.9953H58.2638V32.9279H57.5957V25.915Z" fill="#797979" fill-opacity="0.31"/>
<path d="M65.1896 32.3588H66.6141C68.6273 32.3588 69.5015 31.5239 69.5015 29.4215C69.5015 27.3199 68.6273 26.485 66.6141 26.485H65.1896V32.3588ZM64.5215 25.915H66.9477C69.0697 25.9641 70.1696 27.104 70.1696 29.4215C70.1696 31.7398 69.0697 32.8789 66.9477 32.9279H64.5215V25.915Z" fill="#797979" fill-opacity="0.31"/>
<path d="M72.2426 30.1779H75.0024L73.6466 26.5831L72.2426 30.1779ZM73.3032 25.915H74.0498L76.7998 32.9279H76.0835L75.2289 30.7479H72.0365L71.1918 32.9279H70.4746L73.3032 25.915Z" fill="#797979" fill-opacity="0.31"/>
<path d="M76.0156 25.9146V26.4845H78.4615V32.9283H79.1296V26.4845H81.5754V25.9146H76.0156Z" fill="#797979" fill-opacity="0.31"/>
<path d="M82.2832 25.9155H82.9513V32.9284H82.2832V25.9155Z" fill="#797979" fill-opacity="0.31"/>
<path d="M87.3532 32.5062C89.1996 32.5062 89.9855 30.9542 89.9855 29.4217C89.9855 27.8901 89.1996 26.338 87.3532 26.338C85.4969 26.338 84.7111 27.8901 84.7111 29.4217C84.7111 30.9542 85.4969 32.5062 87.3532 32.5062ZM87.3532 25.7681C89.5537 25.7681 90.6536 27.4968 90.6536 29.4217C90.6536 31.3475 89.5537 33.0762 87.3532 33.0762C85.1428 33.0762 84.043 31.3475 84.043 29.4217C84.043 27.4968 85.1428 25.7681 87.3532 25.7681Z" fill="#797979" fill-opacity="0.31"/>
<path d="M91.6855 25.915H92.4321L96.5184 31.8477H96.538V25.915H97.2053V32.9279H96.4595L92.3733 26.9953H92.3536V32.9279H91.6855V25.915Z" fill="#797979" fill-opacity="0.31"/>
<path d="M38.3223 10.5996H42.1885V19.9316H47.7418V23.1478H38.3223V10.5996Z" fill="#797979" fill-opacity="0.31"/>
<path d="M50.2715 10.6001H54.1377V23.1483H50.2715V10.6001Z" fill="#797979" fill-opacity="0.31"/>
<path d="M57.0195 10.5996H60.9733L64.6286 17.3132H64.6645V10.5996H68.3198V23.1478H64.5591L60.71 16.2935H60.6748V23.1478H57.0195V10.5996Z" fill="#797979" fill-opacity="0.31"/>
<path d="M82.607 18.297C82.607 21.7944 80.7622 23.4462 76.8951 23.4462C73.0296 23.4462 71.166 21.7944 71.166 18.297V10.5996H75.0331V17.4359C75.0331 18.7009 75.0151 20.3176 76.9131 20.3176C78.7407 20.3176 78.7407 18.7009 78.7407 17.4359V10.5996H82.607V18.297Z" fill="#797979" fill-opacity="0.31"/>
<path d="M88.757 16.4693L84.6266 10.5996H89.161L91.0589 14.0088L92.9217 10.5996H97.21L93.1859 16.5045L97.6671 23.1478H93.0092L90.8659 19.4042L88.6515 23.1478H84.2227L88.757 16.4693Z" fill="#797979" fill-opacity="0.31"/>
<path d="M7.62302 26.6191V14.0039H1.30273V32.928H20.235V26.6191H7.62302Z" fill="#797979" fill-opacity="0.31"/>
<path d="M32.8479 1.37842H1.30859V10.8429H7.61498V7.71506H26.5415V26.6195H23.3916V32.9283H32.8479V1.37842Z" fill="#797979" fill-opacity="0.31"/>
</g>
<defs>
<clipPath id="clip0_728_6051">
<rect width="97.3106" height="32.7095" fill="white" transform="translate(0.605469 0.724121)"/>
</clipPath>
</defs>
</svg>
