<svg width="118" height="22" viewBox="0 0 118 22" fill="none" xmlns="http://www.w3.org/2000/svg">
<path d="M88.7423 12.2173C88.7423 13.2484 88.543 14.1409 88.1358 14.9034C87.7285 15.6659 87.148 16.2464 86.3768 16.645C85.6056 17.0523 84.6612 17.2516 83.5347 17.2516C82.4083 17.2516 81.4638 17.0523 80.6927 16.645C79.9215 16.2464 79.341 15.6572 78.9337 14.9034C78.5265 14.1409 78.3272 13.2484 78.3272 12.2173V0.467773H73.0156V12.4686C73.0156 14.3835 73.4575 16.0472 74.3327 17.4682C75.2165 18.8892 76.4382 20.007 78.0152 20.7955C79.5922 21.5927 81.4292 21.9912 83.5261 21.9912C85.623 21.9912 87.4599 21.5927 89.0369 20.7955C90.6139 19.9983 91.8356 18.8892 92.7195 17.4682C93.6033 16.0472 94.0365 14.3748 94.0365 12.4686V0.467773H88.725V12.2173H88.7423Z" fill="#292A3D"/>
<path d="M15.2735 12.4155C15.2735 13.9751 14.8923 15.1882 14.1384 16.072C13.3846 16.9558 12.1542 17.3891 10.4732 17.3891C8.79225 17.3891 7.54451 16.9212 6.808 15.994C6.07149 15.0669 5.6989 13.7325 5.6989 11.9909V11.2284H0.5V12.4068C0.5 14.4344 0.915914 16.1587 1.74774 17.5797C2.57956 19.0007 3.74931 20.0925 5.24833 20.855C6.74734 21.6175 8.48898 21.9901 10.4732 21.9901C12.4575 21.9901 14.2424 21.6262 15.7761 20.8897C17.3011 20.1618 18.4882 19.0961 19.3287 17.701C20.1692 16.306 20.5937 14.625 20.5937 12.6581V0.458008H15.2822V12.4068L15.2735 12.4155Z" fill="#292A3D"/>
<path d="M30.3416 0.467773L23.2797 15.7266L20.585 21.558H26.2604L28.132 17.3122H39.4223L41.3026 21.558H46.952L37.2214 0.476447H30.3329L30.3416 0.467773ZM30.0383 13.0058L33.7728 4.53158L37.5247 13.0058H30.0383Z" fill="#292A3D"/>
<path d="M57.8984 0.12207V4.96571C57.4912 5.06102 57.1186 5.19966 56.7893 5.37296C56.0182 5.7802 55.4376 6.36076 55.0304 7.1146C54.6318 7.8771 54.4238 8.76959 54.4238 9.8007V21.5502H49.1123V9.54941C49.1123 7.63449 49.5542 5.97084 50.438 4.54114C51.3132 3.12011 52.5436 2.01101 54.1206 1.21385C55.2383 0.641969 56.5034 0.278037 57.8984 0.12207Z" fill="#181EB4"/>
<path d="M70.1322 9.54855V21.5494H64.8207V9.79984C64.8207 8.76873 64.6127 7.87624 64.2141 7.11374C63.8069 6.3599 63.2263 5.77934 62.4552 5.3721C62.1259 5.1988 61.7707 5.06883 61.3721 4.96485V0.129883C62.7584 0.28585 64.0062 0.649773 65.1239 1.21299C66.7009 2.01015 67.9313 3.11925 68.8065 4.54028C69.6903 5.96998 70.1322 7.63363 70.1322 9.54855Z" fill="#181EB4"/>
<path d="M116.54 11.8188C116.011 11.0303 115.162 10.4151 113.983 9.96456C112.805 9.51399 111.228 9.18471 109.261 8.97676L104.963 8.5002C103.69 8.3529 102.806 8.11895 102.303 7.79835C101.809 7.47775 101.558 7.03583 101.558 6.48128C101.558 5.7361 101.974 5.15556 102.806 4.74831C103.638 4.34973 104.773 4.14179 106.194 4.14179C107.225 4.14179 108.109 4.2631 108.854 4.49705C109.59 4.731 110.188 5.05158 110.621 5.45016C111.063 5.85741 111.323 6.34265 111.393 6.92319H116.765C116.687 5.53682 116.193 4.32374 115.274 3.29263C114.356 2.26151 113.126 1.45567 111.592 0.87513C110.058 0.294586 108.282 0 106.28 0C104.279 0 102.494 0.259948 100.978 0.788503C99.4698 1.31706 98.3001 2.07088 97.4596 3.06733C96.6278 4.06379 96.2119 5.25956 96.2119 6.66326C96.2119 8.44822 96.8444 9.85191 98.1095 10.883C99.3745 11.9141 101.419 12.5727 104.253 12.8499L108.325 13.2745C109.729 13.4218 110.691 13.6644 111.211 13.9937C111.722 14.323 111.982 14.7822 111.982 15.3887C111.982 16.1772 111.54 16.7838 110.647 17.217C109.755 17.6503 108.533 17.8669 106.982 17.8669C105.899 17.8669 104.946 17.7369 104.132 17.477C103.317 17.217 102.667 16.8444 102.182 16.3505C101.697 15.8653 101.402 15.3021 101.307 14.6609H95.9346C95.9866 16.1252 96.4805 17.399 97.4076 18.4994C98.3347 19.5999 99.6085 20.449 101.229 21.0729C102.849 21.6881 104.738 22 106.896 22C109.053 22 110.795 21.6967 112.363 21.0989C113.931 20.501 115.145 19.6605 116.02 18.5861C116.895 17.5116 117.328 16.2466 117.328 14.8082C117.328 13.6125 117.068 12.616 116.54 11.8275V11.8188Z" fill="#292A3D"/>
</svg>
